<mxfile host="app.diagrams.net" agent="Mozilla/5.0 (Windows NT 10.0; Win64; x64) AppleWebKit/537.36 (KHTML, like Gecko) Chrome/131.0.0.0 Safari/537.36" version="24.9.0">
  <diagram name="P치gina-1" id="Yvos32dWdBQQlg7Hisrq">
    <mxGraphModel dx="955" dy="506" grid="1" gridSize="10" guides="1" tooltips="1" connect="1" arrows="1" fold="1" page="1" pageScale="1" pageWidth="850" pageHeight="1100" math="0" shadow="0">
      <root>
        <mxCell id="0" />
        <mxCell id="1" parent="0" />
        <mxCell id="izhmh5ZhqzcekRWEDMXZ-1" value="FPGA modulo&lt;div&gt;&lt;br&gt;&lt;/div&gt;&lt;div&gt;Tienen que recibir la amplitud de senoidal (8 bits) antes de que arranque un nuevo periodo de triangular.&lt;/div&gt;&lt;div&gt;&lt;br&gt;&lt;/div&gt;&lt;div&gt;Esto debe correr a la maxima velocidad posible (48MHz), para tener mayor resolucion temporal.&lt;/div&gt;" style="rounded=0;whiteSpace=wrap;html=1;" vertex="1" parent="1">
          <mxGeometry x="10" y="220" width="160" height="170" as="geometry" />
        </mxCell>
        <mxCell id="izhmh5ZhqzcekRWEDMXZ-5" style="edgeStyle=orthogonalEdgeStyle;rounded=0;orthogonalLoop=1;jettySize=auto;html=1;exitX=0.5;exitY=1;exitDx=0;exitDy=0;entryX=0.5;entryY=0;entryDx=0;entryDy=0;" edge="1" parent="1" source="izhmh5ZhqzcekRWEDMXZ-2" target="izhmh5ZhqzcekRWEDMXZ-1">
          <mxGeometry relative="1" as="geometry" />
        </mxCell>
        <mxCell id="izhmh5ZhqzcekRWEDMXZ-2" value="FPGA main&lt;div&gt;&lt;br&gt;&lt;/div&gt;&lt;div&gt;Tiene que recibir ma, mf y el 1er indice de la tabla de se침al y reenviarla a los N modulos.&lt;/div&gt;&lt;div&gt;&lt;br&gt;&lt;/div&gt;&lt;div&gt;Se envia 120 grados desfasados entre fase (2 se침ales) y 360/N grados entre modulos&lt;/div&gt;" style="rounded=0;whiteSpace=wrap;html=1;" vertex="1" parent="1">
          <mxGeometry x="10" y="10" width="160" height="170" as="geometry" />
        </mxCell>
        <mxCell id="izhmh5ZhqzcekRWEDMXZ-4" style="edgeStyle=orthogonalEdgeStyle;rounded=0;orthogonalLoop=1;jettySize=auto;html=1;exitX=0;exitY=0.5;exitDx=0;exitDy=0;" edge="1" parent="1" source="izhmh5ZhqzcekRWEDMXZ-3" target="izhmh5ZhqzcekRWEDMXZ-2">
          <mxGeometry relative="1" as="geometry" />
        </mxCell>
        <mxCell id="izhmh5ZhqzcekRWEDMXZ-3" value="uC&lt;div&gt;&lt;br&gt;&lt;/div&gt;&lt;div&gt;Tiene el control, el cual ajusta el ma, mf y el indice de la tabla&lt;/div&gt;" style="rounded=0;whiteSpace=wrap;html=1;" vertex="1" parent="1">
          <mxGeometry x="220" y="20" width="160" height="150" as="geometry" />
        </mxCell>
        <mxCell id="izhmh5ZhqzcekRWEDMXZ-7" value="FPGA modulo&lt;div&gt;&lt;br&gt;&lt;/div&gt;&lt;div&gt;Debe actualizar los estados de los transistores tan pronto como cambien los estados.&lt;/div&gt;" style="rounded=0;whiteSpace=wrap;html=1;" vertex="1" parent="1">
          <mxGeometry x="425" y="220" width="160" height="170" as="geometry" />
        </mxCell>
        <mxCell id="izhmh5ZhqzcekRWEDMXZ-8" style="edgeStyle=orthogonalEdgeStyle;rounded=0;orthogonalLoop=1;jettySize=auto;html=1;exitX=0.5;exitY=1;exitDx=0;exitDy=0;entryX=0.5;entryY=0;entryDx=0;entryDy=0;" edge="1" parent="1" source="izhmh5ZhqzcekRWEDMXZ-9" target="izhmh5ZhqzcekRWEDMXZ-7">
          <mxGeometry relative="1" as="geometry" />
        </mxCell>
        <mxCell id="izhmh5ZhqzcekRWEDMXZ-9" value="FPGA main&lt;div&gt;&lt;br&gt;&lt;/div&gt;&lt;div&gt;Compara las amplitudes a 48Mhz y genera un conjunto de 2*N+1 estados cada al menos del periodo de una triangular.&amp;nbsp;&lt;/div&gt;" style="rounded=0;whiteSpace=wrap;html=1;" vertex="1" parent="1">
          <mxGeometry x="425" y="20" width="160" height="150" as="geometry" />
        </mxCell>
        <mxCell id="izhmh5ZhqzcekRWEDMXZ-10" style="edgeStyle=orthogonalEdgeStyle;rounded=0;orthogonalLoop=1;jettySize=auto;html=1;exitX=0;exitY=0.5;exitDx=0;exitDy=0;" edge="1" parent="1" source="izhmh5ZhqzcekRWEDMXZ-11" target="izhmh5ZhqzcekRWEDMXZ-9">
          <mxGeometry relative="1" as="geometry" />
        </mxCell>
        <mxCell id="izhmh5ZhqzcekRWEDMXZ-11" value="uC&lt;div&gt;&lt;br&gt;&lt;/div&gt;&lt;div&gt;Tiene el control, envia las amplitudes de las 3 senoidales (8 bits cada una).&lt;/div&gt;" style="rounded=0;whiteSpace=wrap;html=1;" vertex="1" parent="1">
          <mxGeometry x="665" y="20" width="160" height="150" as="geometry" />
        </mxCell>
        <mxCell id="izhmh5ZhqzcekRWEDMXZ-12" value="FPGA modulo&lt;div&gt;&lt;br&gt;&lt;/div&gt;&lt;div&gt;Debe actualizar los estados de los transistores tan pronto como cambien los estados.&lt;/div&gt;" style="rounded=0;whiteSpace=wrap;html=1;" vertex="1" parent="1">
          <mxGeometry x="10" y="700" width="160" height="170" as="geometry" />
        </mxCell>
        <mxCell id="izhmh5ZhqzcekRWEDMXZ-13" style="edgeStyle=orthogonalEdgeStyle;rounded=0;orthogonalLoop=1;jettySize=auto;html=1;exitX=0.5;exitY=1;exitDx=0;exitDy=0;entryX=0.5;entryY=0;entryDx=0;entryDy=0;" edge="1" parent="1" source="izhmh5ZhqzcekRWEDMXZ-14" target="izhmh5ZhqzcekRWEDMXZ-12">
          <mxGeometry relative="1" as="geometry" />
        </mxCell>
        <mxCell id="izhmh5ZhqzcekRWEDMXZ-14" value="FPGA main&lt;div&gt;&lt;br&gt;&lt;/div&gt;&lt;div&gt;Reenvia a los N modulos la amplitud actual de la senoidal con un desfasaje de 360/N. (Cuello de botella). No tengo la senoidal para mandar la se침al desfasada&lt;/div&gt;" style="rounded=0;whiteSpace=wrap;html=1;fillColor=#ffe6cc;strokeColor=#d79b00;" vertex="1" parent="1">
          <mxGeometry x="10" y="470" width="160" height="150" as="geometry" />
        </mxCell>
        <mxCell id="izhmh5ZhqzcekRWEDMXZ-15" style="edgeStyle=orthogonalEdgeStyle;rounded=0;orthogonalLoop=1;jettySize=auto;html=1;exitX=0;exitY=0.5;exitDx=0;exitDy=0;" edge="1" parent="1" source="izhmh5ZhqzcekRWEDMXZ-16" target="izhmh5ZhqzcekRWEDMXZ-14">
          <mxGeometry relative="1" as="geometry" />
        </mxCell>
        <mxCell id="izhmh5ZhqzcekRWEDMXZ-16" value="uC&lt;div&gt;&lt;br&gt;&lt;/div&gt;&lt;div&gt;Tiene el control, envia las amplitudes de 1 senoidal de referencia (8 bits cada una), escaladas por el ma, remuestreadas por el mf en el indice correspondiente.&lt;/div&gt;" style="rounded=0;whiteSpace=wrap;html=1;" vertex="1" parent="1">
          <mxGeometry x="220" y="470" width="160" height="150" as="geometry" />
        </mxCell>
        <mxCell id="izhmh5ZhqzcekRWEDMXZ-18" value="" style="edgeStyle=orthogonalEdgeStyle;rounded=0;orthogonalLoop=1;jettySize=auto;html=1;" edge="1" parent="1" source="izhmh5ZhqzcekRWEDMXZ-17" target="izhmh5ZhqzcekRWEDMXZ-9">
          <mxGeometry relative="1" as="geometry" />
        </mxCell>
        <mxCell id="izhmh5ZhqzcekRWEDMXZ-17" value="&lt;div&gt;Cuello de botella&lt;/div&gt;" style="text;html=1;align=center;verticalAlign=middle;whiteSpace=wrap;rounded=0;fillColor=#ffe6cc;strokeColor=#d79b00;" vertex="1" parent="1">
          <mxGeometry x="600" y="180" width="95" height="30" as="geometry" />
        </mxCell>
        <mxCell id="izhmh5ZhqzcekRWEDMXZ-19" value="Por SPI (2,4MHz)&lt;div&gt;&lt;br&gt;&lt;div&gt;indice -&amp;gt; aprox 10 bits o &amp;gt;&lt;/div&gt;&lt;div&gt;mf -&amp;gt; aprox 16 bits&lt;/div&gt;&lt;div&gt;ma -&amp;gt; aprox 16 bits (FP)&lt;/div&gt;&lt;div&gt;&lt;br&gt;&lt;/div&gt;&lt;/div&gt;" style="text;html=1;align=center;verticalAlign=middle;whiteSpace=wrap;rounded=0;fillColor=#dae8fc;strokeColor=#6c8ebf;" vertex="1" parent="1">
          <mxGeometry x="220" y="220" width="160" height="100" as="geometry" />
        </mxCell>
      </root>
    </mxGraphModel>
  </diagram>
</mxfile>
